<svg id="Layer_1" data-name="Layer 1" xmlns="http://www.w3.org/2000/svg" viewBox="0 0 131.07 76.81"><defs><style>.cls-1{fill:none;}.cls-2{fill:#f9ee6e;}</style></defs><path class="cls-1" d="M931.49,743.86a2,2,0,0,1-.19.45l.58-.49c-.32-.58.93.27.42-.55a4.58,4.58,0,0,1-.34-1.38s-.11.07-.11.11Z" transform="translate(-924.54 -672.67)"/><path class="cls-1" d="M931,745.25a2,2,0,0,0,.12.81l.56-.39c-.08-.43-.13-.72-.19-1C931.27,744.86,931,745,931,745.25Z" transform="translate(-924.54 -672.67)"/><path class="cls-1" d="M935.37,736.33l-.25.09.27.41c.3-.22.86,0,1.28,0l-.9-.52C935.52,736.23,935.26,736.19,935.37,736.33Z" transform="translate(-924.54 -672.67)"/><path class="cls-1" d="M926,744.68c.06,0,.18,0,.18,0v-.19a1.21,1.21,0,0,0-.2.09S925.94,744.64,926,744.68Z" transform="translate(-924.54 -672.67)"/><path class="cls-1" d="M934.86,738c-.61.29.6.24.24.5l.79-.46a1.74,1.74,0,0,0-.37-.43C935,737.26,935,737.74,934.86,738Z" transform="translate(-924.54 -672.67)"/><polygon class="cls-2" points="1.64 71.78 1.58 71.7 1.58 71.8 1.64 71.78"/><path class="cls-2" d="M936.67,736.79l2,1.17c-.27,0-.52.08-.58.23-.31.79-.05,1.83-.86,2.41-.09.06,0,.34,0,.51,0,.65-.42.09-.63.09-.93,0-.5-.51-.57-.86,0-.08-.25-.23-.36-.23a5.49,5.49,0,0,0-.8.11,3.11,3.11,0,0,1,.32.24c-.53.88,1.45,1.28.9,2.16a.45.45,0,0,0,.07.37c.89.3.43.78.41,1.19,0,.08-.2.12-.3.18.05,0,.12,0,.15,0l.43-.31.36-.28c0,.18.07.41,0,.52-.84,1.06-1.76,2.06-2.57,3.14a7.57,7.57,0,0,0-.52,1.38.85.85,0,0,1-.54.34c-.1,0-.3-.19-.45-.3a2.88,2.88,0,0,0,.39-.3,2.7,2.7,0,0,0,.29-.4c-.17-.06-.47-.2-.51-.15a8.15,8.15,0,0,0-.65,1c-.08.13-.11.3-.2.43s-.18,0-.28,0c0-.17,0-.37,0-.5.47-.75-.45-.11-.45-.39-.37.94-2-2.62-1.95.14,0,.3-.83.47-1.27.69.06-.18.21-.37.15-.53s-.34-.35-.52-.53c-.09.08-.27.19-.24.24s.21.22.33.33.1.09.09.11l-.19.35a4.7,4.7,0,0,1-1-.65,6.94,6.94,0,0,0-2.4-1.64c-.12-.05-.23-.57-.19-.58.49-.13.59-.45.48-.92,0-.18.08-.36.13-.54.07.09.14.24.21.25s.37,0,.37-.07c0-.21-.19-.44-.17-.62a1.89,1.89,0,0,1,.27-.62l.28.39v.1a1.21,1.21,0,0,0-.2.09s0,.08,0,.12.18,0,.18,0v-.19l0,0,0-.08c0-.23,0-.45,0-.67s.06-.45.14-.45c1.25,0,1-1,1.17-1.72,0,0,.14,0,.22,0a2,2,0,0,0,0,.24s0,.16,0,.17.16,0,.23,0,0,.11.06.18,0-.19.09-.19c.28,0-.74-1,.32-.44l.41-1.3-.55.35c0-.22,0-.45.06-.67a2.92,2.92,0,0,0,.11-.72c-.1-.89.93-.91,1.23-1.49,0-.07-.11-.22-.09-.3a3.9,3.9,0,0,0,.26-.64c.12-.78-.18,0-.26-.1s-.08-.07-.08-.09l.12-.68a1.28,1.28,0,0,1,.29.13,1.06,1.06,0,0,1,.19.23,4.22,4.22,0,0,0,0-.62c0-.13-.19-.36-.15-.39.27-.19.09-.87.81-.6a.41.41,0,0,0,.19,0s0-.09-.09-.11l-.49-.35a2.53,2.53,0,0,1,.8.16c.2.13.24.49.44.62a1.17,1.17,0,0,0,.7,0c.25,0,.47-.26.69-.21a1.12,1.12,0,0,0,.35,0l2.49,1.46c-.25,0-.51-.08-.4.06l-.25.09.27.41C935.69,736.61,936.25,736.8,936.67,736.79Zm-5.23,7.88c-.17.19-.43.35-.49.58a2,2,0,0,0,.12.81l.56-.39C931.55,745.24,931.5,745,931.44,744.67Zm.52-2.78s-.11.07-.11.11l-.36,1.86a2,2,0,0,1-.19.45l.58-.49c-.32-.58.93.27.42-.55A4.58,4.58,0,0,1,932,741.89Zm3.56-4.29c-.57-.34-.51.14-.66.39-.61.29.6.24.24.5l.79-.46A1.74,1.74,0,0,0,935.52,737.6Z" transform="translate(-924.54 -672.67)"/><path class="cls-2" d="M938.87,738.41c.08.42-.82.57-.26,1.19a2,2,0,0,0-.34-.14s-.11.13-.09.16c.52.73.76,0,1.15,0h.18L939,739c-.08-.45.24-.2.56,0l.33-.39-1-.58A.53.53,0,0,0,938.87,738.41Z" transform="translate(-924.54 -672.67)"/><path class="cls-2" d="M938.38,740.15c-.57.57-.88,1.11.54,1.31-.49-.35-.8-.73-.25-1.31C938.57,740.15,938.42,740.11,938.38,740.15Z" transform="translate(-924.54 -672.67)"/><polygon class="cls-2" points="14.4 68.79 14.38 68.79 14.42 68.81 14.4 68.79"/><path class="cls-2" d="M939.38,741.75l-.42-.27.31.41Z" transform="translate(-924.54 -672.67)"/><path class="cls-2" d="M937.25,742.07s0,.15.06.22l1-.43a1.92,1.92,0,0,0,0-.32C937.68,741.32,937.53,741.78,937.25,742.07Z" transform="translate(-924.54 -672.67)"/><path class="cls-2" d="M932.08,734.1s.07-.12.11-.13l-.27-.16Z" transform="translate(-924.54 -672.67)"/><path class="cls-1" d="M951.21,715.83c-.24.06-.56,0-.7.19-.44.46-.41-.07-.54-.27-.49.69-1,1.36-1.46,2.08,0,.08,0,.26,0,.39.09,0,.19-.1.28-.08.6.13-.21.86.6.93,0,0,.09.22,0,.25l-1.41,1.23a1.77,1.77,0,0,0,.21-.41s-.19-.19-.3-.25c-.43-.23-.94.27-1.34-.35l-.26.2a2.66,2.66,0,0,0,.35.32,2.21,2.21,0,0,0,.34.18l-.26.66c-.07-.11-.13-.23-.21-.34l-.45-.67-.19.54c.1,0,.23-.08.3,0a.48.48,0,0,1,.17.29c0,.37-1,0-.48.75l-1.34-.92a2.35,2.35,0,0,0,.54-.06c1.07-.44.45-1.57.71-2.35,0,0,.14,0,.21,0a1.06,1.06,0,0,1,.15.15l.35.38.08-.14c-.37-.25.54-.52-.17-.78-.2-.07-.53-.33-.51-.39a2.88,2.88,0,0,1,.37-.69l.22.53c.34-.25.33-.93,1.06-.73-.57-1,.8-.9.81-1.63,0-.38.43-.73.77-1,.15-.1.56.12.85.18a1.29,1.29,0,0,0,.55,0,6.67,6.67,0,0,0,.76-.37,2.42,2.42,0,0,0,.4.66c1.4,1.21-.69.37-.43.91C951.92,715.69,951,715.52,951.21,715.83Zm-2.49.29a7.14,7.14,0,0,0-.9.5c-.05,0,0,.26.1.37.29.38.41.07.61-.07Zm1.29-.86,1.13,0c.19-.14.59-.29.55-.41-.21-.71-.48.19-1-.2S949.47,714.26,950,715.26Z" transform="translate(-924.54 -672.67)"/><path class="cls-1" d="M945.41,725.78s.37.31.59.44a2.31,2.31,0,0,0,.52.19c0-.13,0-.37,0-.39-.53-.21-1.06-.38-1.6-.57C944.86,725.87,944.88,726.16,945.41,725.78Z" transform="translate(-924.54 -672.67)"/><path class="cls-1" d="M947.24,723.29c-.47-.16-.38-1.23-1.23-.77.16.16.72.16.38.58,0,0,.32.37.49.56.09-.15-.35-.73.36-.37a6.94,6.94,0,0,1,.78.22c.08,0,.11.22.17.33,0-.43,0-.87,0-1.3,0-.06-.09-.13-.13-.2a4.4,4.4,0,0,0-.39.35C947.52,722.88,947.38,723.09,947.24,723.29Z" transform="translate(-924.54 -672.67)"/><path class="cls-1" d="M950.48,720.13l1.28.9c-.16-.43-.33-.86-.6-1.59a.73.73,0,0,0-.47-.22C950.09,719.27,951.86,720.32,950.48,720.13Z" transform="translate(-924.54 -672.67)"/><path class="cls-1" d="M945,722s-.19.06-.25.12-.13.23-.21.33a1.41,1.41,0,0,1-.22-.11,1.37,1.37,0,0,0,.21-.28c.3-.77.6-1.06,1,.14a.4.4,0,0,0,.21.12c.1,0,.28-.11.26-.14-.09-.28-.23-.55-.35-.83-.32.17-.91-.64-1.13.11-.09.3-.59.42-.81.7s-.46.56.18.83c-1.35.25-.82,1.91-1.92,2.38-.15.07-.14.41-.14.64a.56.56,0,0,0,.32.3,4.11,4.11,0,0,0,.7,0c-.22.2-.45.38-.65.59a4.86,4.86,0,0,0-.42.59c.07,0,.17.13.2.11a3,3,0,0,0,.6-.37,2.31,2.31,0,0,0,.34-.42l.1,0c0,.11,0,.31.08.32.31.05-.49.5.22.37-.18.39.06.61.48.71.09,0,.22-.1.27-.19s.2-.48.3-.72c0,.14.14.3.12.43a6.71,6.71,0,0,1-.15.78c.17-.14.44-.24.5-.43a1.24,1.24,0,0,0,0-.85c-.45-1.06-.94,0-1.42-.25.95-.54-.49-1.19-.29-1.91s.69-1,.89-1.58c0-.07.19-.11.29-.09a.34.34,0,0,1,.21.21.26.26,0,0,1-.12.25c-.91.3.37,1.37-.39,1.71.07,0,.18.14.22.12s.25-.1.24-.17c0-.47.23-.3.5-.11.43-.15-.67-.45-.07-.69.32-.13.39-.64.55-1a.86.86,0,0,0-.34-.25c-.81-.26.71-.57-.2-.82l.36-.05h.3C945.32,722.44,945.15,722.23,945,722Z" transform="translate(-924.54 -672.67)"/><path class="cls-1" d="M949,720.63l0,.56c0,.24,0,.47.06.71-.93-.46-.13.48-.45.51.29,0,.64-.07.85.07s.76-.29.93.34c0,.07-.09.14-.14.21s.14,0,.17,0,.2-.11.22-.2c.16-.58-.55-.32-.66-.59-.41-.26-.44-.38-.15-.56.53-.32.28-1.09.08-1.33C949.44,719.82,949.66,721.16,949,720.63Z" transform="translate(-924.54 -672.67)"/><path class="cls-1" d="M953.76,714.86a.43.43,0,0,1,0,.19,3.23,3.23,0,0,1-.15.7,1.37,1.37,0,0,1-.43-.16c-.59-.44-.7.75-1.35,0a.46.46,0,0,0,0,.2.56.56,0,0,0,.16.21c.6-.11.47.38.54.59s0,.72.55.43a3.64,3.64,0,0,1,.71-.36c.31-.1,1-.09.95-.19-.11-.68.78-.35.75-.4a2.17,2.17,0,0,1,.11-2.57C954.2,713,954.91,715,953.76,714.86Z" transform="translate(-924.54 -672.67)"/><path class="cls-1" d="M959.75,706.25c.53-.61.48-1.58,1.27-1.6.1,0,.08-.45.12-.72a1.39,1.39,0,0,0,0-.33l-.24.13a3.79,3.79,0,0,0-1.14.76c-.22.29-.42,0-.65,0s-.26.18-.16.1c0,.56-.06.81-.1,1,0,0-.14,0-.15,0a.8.8,0,0,1-.21-.33.9.9,0,0,1,0-.36c-.1,0-.27.08-.28.16s.08.31.08.45a3.83,3.83,0,0,1,0,.9s-.42-.06-.64-.12a.26.26,0,0,1-.13-.18c0-.06.09-.11.15-.12s.66.47.51,0-.79-.79-1.24-1.13c0,0-.47.25-.44.36.37,1.25,1.72,1.38,2.46,2.24A8.33,8.33,0,0,1,959.75,706.25Z" transform="translate(-924.54 -672.67)"/><path class="cls-1" d="M962,707.07c-.06,0-.12,0-.26,0a3,3,0,0,1-.41,0c-.27,0-.52-.06-.61.07-.33.43.6.21.63.64a5.38,5.38,0,0,1-.9,0c-.13,0-.29-.25-.43-.39-.3.47,1,1,.33,1.43,0,0,.11.12.15.12.67,0,1.19-.2,1-1.06a1.41,1.41,0,0,0,.74.12.36.36,0,0,0,.24-.16c0-.06,0-.13,0-.25s.12,0,.17.08c.63.76.1.27.15.88,0,.12-.15.28-.24.42.23-.13.56-.24.68-.41a1,1,0,0,0-.13-.42C962.72,707.66,962.37,707,962,707.07Z" transform="translate(-924.54 -672.67)"/><path class="cls-1" d="M963.05,705.82a1.17,1.17,0,0,1,0,.3c-.09.34-.36.25-.57.09-.56-.4,0,.63-.27.52.1.2.2.4.31.59a2,2,0,0,1,.17-.27c.16-.2.48.16.76.71,0,.07.08.29.13.43,0-.05.06,0,0-.16,0-.3-.42-.62-.3-.79a.64.64,0,0,0,.06-.14,2,2,0,0,0,0-1,2.9,2.9,0,0,0-.19-.34S963.05,705.77,963.05,705.82Z" transform="translate(-924.54 -672.67)"/><path class="cls-1" d="M947.3,725.76a.73.73,0,0,0,.39.13,5.71,5.71,0,0,0,.71-.08,1.11,1.11,0,0,0-.12-.23c-1.45-.08-.38-.54-.3-.83l0-.21c-.3.3-.59.62-.86,1C947.12,725.52,947.22,725.7,947.3,725.76Z" transform="translate(-924.54 -672.67)"/><path class="cls-1" d="M956.31,709.57c-.08,0-.21.14-.23.11-1.12-1-1.88-.45-2.64.07,0,0,0,.2.06.31a.18.18,0,0,0,.14,0,9,9,0,0,1,1.93-.18,5.14,5.14,0,0,1,1.55.69c.06,0,.11.41,0,.48s-.72.15-.58.67a4.89,4.89,0,0,0,.87-.49,7.28,7.28,0,0,0,.66-.7c.29.47.91-.28,1.11.52.24-.47-.47-.54-.54-.85s.06-.49-.29-.25c-.06,0,.13.42.08.44-.23.08-.72-.42-.75.16-.37-.57-1.68-.77-1-1.73.13-.17.6-.17.24-.56-.06-.07-.44.11-.67.17C957,709,955.37,709,956.31,709.57Z" transform="translate(-924.54 -672.67)"/><path class="cls-1" d="M952.45,710.64c-.05.2.27.37.51.07s.37.73.69.24c.17-.26-.59-.44-.42-.94C953,710.21,952.54,710.36,952.45,710.64Z" transform="translate(-924.54 -672.67)"/><path class="cls-1" d="M955.49,708.55c.11.07-1-.14-.21.44a.74.74,0,0,0,1-.53l-.46-.24a2,2,0,0,0,.37-.09,2.37,2.37,0,0,0,.3-.19l-1-1.38V707C955.43,707.49,954.46,707.84,955.49,708.55Z" transform="translate(-924.54 -672.67)"/><path class="cls-1" d="M941.43,729.31a3.37,3.37,0,0,0-.81.33c-.06,0,.11.51.22.55a4.69,4.69,0,0,0,1,.11C941.7,730,941.57,729.68,941.43,729.31Z" transform="translate(-924.54 -672.67)"/><path class="cls-1" d="M1002.82,683.26c.31-.57.48-.35.6-.09s.21.54.52.22a3.22,3.22,0,0,1-.14.44s-.1.1-.12.08a.92.92,0,0,0-.13-.21s-.09.12-.14.19l.41.4s.1,0,.15-.07l-.21.4c.4.06.84-1.51,1.3-1.1-.3-.58-.59-1.39-1.12-1.65-.26-.13-.57-.4-.9-.32s-.63.5-.8,1.6C1002.45,683.16,1002.71,683.45,1002.82,683.26Z" transform="translate(-924.54 -672.67)"/><path class="cls-1" d="M944.49,729.17l.35-.09.2-.05a1.84,1.84,0,0,1-.09.42c0,.07-.17.09-.26.14-.76.37-1.77.49-1.88,1.5h0c.2.08.34-.57.57.07a24.69,24.69,0,0,1,2-1.55c.17-.12-.46-.52.14-.36,0-.11,0-.25,0-.32s-.37-.28-.41-.26A3.84,3.84,0,0,0,944.49,729.17Z" transform="translate(-924.54 -672.67)"/><path class="cls-1" d="M945.67,712.15l.76-.65,0-.44c-.5,0-1.22-.13-1.46.14C944.29,711.93,946,711.43,945.67,712.15Z" transform="translate(-924.54 -672.67)"/><path class="cls-1" d="M932.56,734a2.53,2.53,0,0,0-.36-.07h0l.64.38C932.91,734.29,932.31,734,932.56,734Z" transform="translate(-924.54 -672.67)"/><path class="cls-1" d="M936.8,735.77c.07-1,1.68-.92,1.51-2.06,0,0,.32,0,.33-.05,0-.32.08-.85-.07-.93-.53-.28-.37.29-.56.46s-.32.44-.59,0a4.39,4.39,0,0,0-.4-.56c-.21.7-1.22,1-.78,2,.06.15,0,.32-.08.48a1.82,1.82,0,0,0-.37-.13,1.19,1.19,0,0,0-.53,0c-.06,0-.1.27-.06.3.91.63.52.57.12.51l.9.52C936.53,736.33,936.77,736.22,936.8,735.77Z" transform="translate(-924.54 -672.67)"/><path class="cls-1" d="M988.46,705.45l.2.17,0-.24a2.85,2.85,0,0,1-.51-.08c-.34-.14-.68-.31-1-.46,0-.06.05-.14.11-.16a3.33,3.33,0,0,1,.45-.13c-.19,0-.45-.06-.57,0s-.31.35-.25.47.64.57.6.61c-.37.51-.63-.35-1-.24s.8.41,0,.42c-.38,0-.68-.25-.92.23-.41.83-.16,1.21.7,1.28a3.6,3.6,0,0,0,.9-.15,1.27,1.27,0,0,0-.17-.54s-.18,0-.26,0-.47.17-.69.24c0-.14,0-.39,0-.4a1.84,1.84,0,0,1,.89-.08c.5.16,1,.91,1.48.23l-.81-.58A9.63,9.63,0,0,1,988.46,705.45Z" transform="translate(-924.54 -672.67)"/><path class="cls-1" d="M939.14,731.82l.25.34a8.4,8.4,0,0,0,.82-1.16c.08-.17-.09-.48-.15-.72Z" transform="translate(-924.54 -672.67)"/><path class="cls-1" d="M942.56,732.21a1.61,1.61,0,0,0,.26-.48,2.26,2.26,0,0,0,0-.63C942.3,731.33,942.06,731.64,942.56,732.21Z" transform="translate(-924.54 -672.67)"/><path class="cls-1" d="M942.2,722.35c0-.06,0,0,0,0Z" transform="translate(-924.54 -672.67)"/><path class="cls-1" d="M939.93,732.43a4.66,4.66,0,0,0,0,.65l1.13,0-.16-.36a1.36,1.36,0,0,1-.39.12c-.43,0,.47-.38-.18-.36C940.18,732.47,939.93,732.41,939.93,732.43Z" transform="translate(-924.54 -672.67)"/><path class="cls-1" d="M938.54,731.39c-.17-.26-.41-.77-.5-.76-1,.06,0,1.51-1.18,1.49l.09.33C938.13,732.74,937.44,731.09,938.54,731.39Z" transform="translate(-924.54 -672.67)"/><path class="cls-1" d="M943.37,721.69a1.24,1.24,0,0,0,0-.27c-.53-.06-.9.13-1.06,1C943,722.58,942.85,721.74,943.37,721.69Z" transform="translate(-924.54 -672.67)"/><path class="cls-1" d="M966.31,699.94s.1-.18.16-.27l-.21,0a3.23,3.23,0,0,0-.93.29,2.81,2.81,0,0,1,0-.61A1.2,1.2,0,0,1,966,699a.39.39,0,0,1,.29.12c0-.11.06-.2,0-.26s-.19-.3-.27-.27c-.56.25-1.15-.25-1.62.72a3.89,3.89,0,0,1-.66-.27s0-.13,0-.2.11-.37.17-.55c-.14.18-.28.35-.42.56.32,0-.43,1.29.21.85-.48,1.07.41.64.21.77-.38.26-.82.07-.82,1-.24.66-.33,1-.43,1.31,0,0,0,0,.08,0,.78-.15.69-.3.88-.66.48-1,1.35-1.7,2-.74C965.81,701.68,965.7,699.9,966.31,699.94Z" transform="translate(-924.54 -672.67)"/><path class="cls-1" d="M955.64,713.55h0c0,.17.72.36.12.52-.12,0-.17.2-.24.32l.11.08c.1-.09.23-.16.29-.29s.14-.5.26-.73a4,4,0,0,1,.49.23,4.36,4.36,0,0,0-.78-.54C955.28,712.88,955.82,713.47,955.64,713.55Z" transform="translate(-924.54 -672.67)"/><path class="cls-1" d="M991.23,686.45a4,4,0,0,0,0,.92l.62,0-.17-1.21C991.51,686.27,991.26,686.32,991.23,686.45Z" transform="translate(-924.54 -672.67)"/><path class="cls-1" d="M985.79,688.22c.18.31.33.85.6.95.56.19,0-.36.16-.41s.49-.4.6.15c1,0,.12-.58.05-.81s-.53-.41-.82-.45S986.06,688,985.79,688.22Z" transform="translate(-924.54 -672.67)"/><path class="cls-1" d="M992.77,687.09c-.07,0,.11.43.17.66l1.54-.38a4.33,4.33,0,0,0-.42-.67A4.6,4.6,0,0,0,992.77,687.09Z" transform="translate(-924.54 -672.67)"/><path class="cls-1" d="M998.08,682.42c-.48.25-.28-1.1-.4-.91-.6.94.33,1.14.56,1.73a1.63,1.63,0,0,0,.17.22,6.23,6.23,0,0,0,0-.94C998.32,682.16,998.22,682.35,998.08,682.42Z" transform="translate(-924.54 -672.67)"/><path class="cls-1" d="M996.94,681.41c0-.09,0,0,0,0Z" transform="translate(-924.54 -672.67)"/><path class="cls-1" d="M981.8,696.53c-.47.69.29.66.6.76.5.37.78.26,1-.07l-.23,0c-.34-.07-.28-.16,0-.25C982.7,696.69,982.09,697.24,981.8,696.53Z" transform="translate(-924.54 -672.67)"/><path class="cls-1" d="M966,700.31a6.27,6.27,0,0,1,.39,1.27c.22-.54.45-1.11.65-1.62a1.94,1.94,0,0,0,.05-.33A4.78,4.78,0,0,0,966,700.31Z" transform="translate(-924.54 -672.67)"/><path class="cls-1" d="M985.41,703.7l.13.2c.38-.39.77-.76,1.11-1.18a3.16,3.16,0,0,0-.55-.48C985.59,702.57,984.92,702.87,985.41,703.7Z" transform="translate(-924.54 -672.67)"/><path class="cls-1" d="M981.84,700.36a4.88,4.88,0,0,0-1.16.52c-.16.11-.08.47-.1.72-.56-.71-.82,0-1.19.1-.18,0-.4.41-.34.49.77,1,1.25,0,1.9,0,.12,0,.17-.43.25-.66Z" transform="translate(-924.54 -672.67)"/><path class="cls-1" d="M981.58,699.73a3.4,3.4,0,0,0-.14-.75l-.9,1c.39.4.3-.72.73.06C981.38,699.94,981.58,699.85,981.58,699.73Z" transform="translate(-924.54 -672.67)"/><path class="cls-1" d="M989.28,701.74a1.76,1.76,0,0,0,0-.23c-.38.38-.78.76-1.15,1.17,0,0,.13.2.16.25C990,703.39,988.35,701.76,989.28,701.74Z" transform="translate(-924.54 -672.67)"/><path class="cls-1" d="M1009.86,689.08l.29.26.49-1.72s-.23-.15-.3-.11C1009.36,687.9,1009.78,688.45,1009.86,689.08Z" transform="translate(-924.54 -672.67)"/><path class="cls-1" d="M1006.11,689.12c.16.66.33,1.32.54,2,0,0,.1,0,.15,0,.07-.69.15-1.37.26-2.06Z" transform="translate(-924.54 -672.67)"/><path class="cls-1" d="M1013.51,695.62c0-.17-.39-.28-.61-.42-.14.41-.95.87-.19,1.3l.46.14A3.4,3.4,0,0,0,1013.51,695.62Z" transform="translate(-924.54 -672.67)"/><path class="cls-1" d="M1008,689.41a1.56,1.56,0,0,0,.26-.82c0-.06-.47-.17-.5-.13a9.34,9.34,0,0,0-.68,1C1007.53,689.45,1007.94,689.52,1008,689.41Z" transform="translate(-924.54 -672.67)"/><path class="cls-1" d="M1013.49,700.78c-.39.37-.55.59-.63.58a1.34,1.34,0,0,1-.49-.25l-.12.85a5.2,5.2,0,0,0,1.27-.47C1014,701.15,1013.22,701.4,1013.49,700.78Z" transform="translate(-924.54 -672.67)"/><path class="cls-1" d="M998,680a8.25,8.25,0,0,0-1,1.48c.09.11.22.26.24.23.24-.38.49-.8.78-1.21a1.58,1.58,0,0,0,0-.47S998,680,998,680Z" transform="translate(-924.54 -672.67)"/><path class="cls-1" d="M1031.88,705.08a6.21,6.21,0,0,0,1.27.1c.1,0,0-.54.07-.83l-1.11.3Z" transform="translate(-924.54 -672.67)"/><path class="cls-1" d="M996.69,676.47a9.11,9.11,0,0,1,1.3.3c-.28-.43-.46-.9.33-1.23a7.69,7.69,0,0,0-1.27.25C996.94,676,996.81,676.22,996.69,676.47Z" transform="translate(-924.54 -672.67)"/><path class="cls-1" d="M983.86,705.6s-.59,0-.62.06c-.12.36.15.49.45.59s.63.18.6.55c.82,0,.66-.72.74-2-.2.82-.38,1.19-.58,1.28S984.08,705.91,983.86,705.6Z" transform="translate(-924.54 -672.67)"/><path class="cls-1" d="M1001.06,675.59c0,.37.08.74.12,1.1.27,0,.6.64.71.1s-.3-.94-.47-1.33C1001.26,675.51,1001.06,675.55,1001.06,675.59Z" transform="translate(-924.54 -672.67)"/><path class="cls-1" d="M1009.08,686.33c-.18.46-.35.84.14,1.1a3.93,3.93,0,0,1,.36.22c.11-.29.32-.57.24-.7A4.92,4.92,0,0,0,1009.08,686.33Z" transform="translate(-924.54 -672.67)"/><path class="cls-1" d="M1004.74,678.87a8.21,8.21,0,0,0-1.13.61c.11.12.22.37.29.36a4.29,4.29,0,0,0,1.2-.29C1005.24,679.48,1005.05,679.1,1004.74,678.87Z" transform="translate(-924.54 -672.67)"/><path class="cls-1" d="M989.52,702.26c0,.09.12.33.15.33.44,0,.88-.05,1.32-.09a5.53,5.53,0,0,0-.88-.67C990,701.78,989.76,702.08,989.52,702.26Z" transform="translate(-924.54 -672.67)"/><path class="cls-1" d="M971.82,709.74l.6.15c-.06-.76-.09-1.47-.09-2.12l-.55.29-.23.12c0-.11,0-.22,0-.32a6.83,6.83,0,0,0,0-1.11c0-.08-.53-.1-.68,0-.58.51-.73.48-.73.27a.62.62,0,0,1,0-.18.51.51,0,0,1,0-.23,1,1,0,0,0,.09-.31,1.56,1.56,0,0,1,.17-.5c-.18.24-.62.43-.54.63a1.81,1.81,0,0,1,0,.42,5.45,5.45,0,0,1,0,.56,1,1,0,0,0,.47.88.87.87,0,0,1,.2.71c-.63.89-.46,1.25-.14,1.41s.79.13.91.44a.94.94,0,0,0,.2-.29c.07-.23.1-.47.15-.69-.07.09-.14.22-.22.26-.59.35-.29-.35-.32-.64,0-.06-.16,0-.25-.08.46-.38.31-.71.16-1a1.08,1.08,0,0,1,0-.35c.36.26.72.48,1.05.68a2.57,2.57,0,0,1-.22.32c0,.05-.1.05-.15.07Z" transform="translate(-924.54 -672.67)"/><path class="cls-1" d="M976.17,719.12a20.86,20.86,0,0,0-.4,2.33c0,.63.25-1.09.34.15a7.29,7.29,0,0,0,.46-.86l0-.33c.09-.13.26-.26.26-.34-.07-1.37-.15-1.31-.27-1S976.26,719.83,976.17,719.12Z" transform="translate(-924.54 -672.67)"/><path class="cls-1" d="M976.17,707.05s-.17.34-.27.51a4.43,4.43,0,0,0-.07.89c.13,0,.31-.22.59-.65A3,3,0,0,0,976.17,707.05Z" transform="translate(-924.54 -672.67)"/><path class="cls-1" d="M972.37,711.61c0-.16-.64-1,.17-.48.28.18.5,0,.72-.54-.2-.19-.39-.5-.65-.57s-.48.27-.61.54a1.18,1.18,0,0,0,.32,1.58A1.47,1.47,0,0,1,972.37,711.61Z" transform="translate(-924.54 -672.67)"/><path class="cls-1" d="M974.26,716a1.48,1.48,0,0,0,0,.27c.3.31.61.61.87.93a2.73,2.73,0,0,1,.06.76c0,.24,0,.51,0,.76l-.25-.17-.06,1.41c.24-.6.47-1.2.77-2.11-.24-1.31-.38-2.55-.51-3.73C974.83,714.77,974.55,715.41,974.26,716Z" transform="translate(-924.54 -672.67)"/><path class="cls-1" d="M979.78,715c-.1.49-.14-1.61-.23-.78,0,.4,0,1.17,0,1.89l.05,1.34,0,.69v.55c.17,0,.36.1.53,0a6.21,6.21,0,0,0,.13-1.25.89.89,0,0,0-.32.05c-.08,0-.14.13-.21.18,0-.66,0-1.32,0-2,0-.07,0-.11,0-.1.32,1.53.13-.19.12-.3C979.84,714.44,979.83,714.76,979.78,715Z" transform="translate(-924.54 -672.67)"/><path class="cls-1" d="M977,719.47c.15.75.25,1.3.36,1.86,0,.08,0-.53.06-.8a9.92,9.92,0,0,0-.31-1.38C977.1,719.09,977.08,719.25,977,719.47Z" transform="translate(-924.54 -672.67)"/><path class="cls-1" d="M978.59,708.68a8.51,8.51,0,0,0,0-1.14c-.38-1.62,0,.6-.32-.6.06.38.11.8.18,1.16A2.35,2.35,0,0,0,978.59,708.68Z" transform="translate(-924.54 -672.67)"/><path class="cls-1" d="M978.76,721.24c.12.11.2.07.23.27s-.25,0-.08.71a1.92,1.92,0,0,0,.11-.45c.06-.36.11-.77.16-1.17,0,1.48.33-.1.42.91,0-.12.08-.32.08-.34-.1-.53-.18-1.14-.29-1.5C979,718.34,979.05,720.72,978.76,721.24Z" transform="translate(-924.54 -672.67)"/><path class="cls-1" d="M982.47,714.39c0,.27.37,1.27.59.7.15-.36,0-.57-.21-.89a5.41,5.41,0,0,1-.16-1.11C982.28,713,982.36,713.72,982.47,714.39Z" transform="translate(-924.54 -672.67)"/><path class="cls-1" d="M980,713.38a16.74,16.74,0,0,0,.07,2.06,5.35,5.35,0,0,0,0-3.24.47.47,0,0,1,0-.21C979.59,710.93,980.15,713,980,713.38Z" transform="translate(-924.54 -672.67)"/><path class="cls-1" d="M983,717.22c.35.23.24-1.47.78-.84l.06-.93a4.26,4.26,0,0,1-1.33.31C982.88,715.94,982.87,717.13,983,717.22Z" transform="translate(-924.54 -672.67)"/><path class="cls-1" d="M968.49,702.38s0-.38-.08-.52-.15,0-.23,0c-.26,1.16.23.77.45,1,.07,0,.17,0,.36,0C969.32,701.55,968.79,702.18,968.49,702.38Z" transform="translate(-924.54 -672.67)"/><path class="cls-1" d="M970.29,694.74c0,.07-.13.1-.2.15s0-.19,0-.24a5.67,5.67,0,0,0-1.08-1.11s-.28.07-.39.16.09.23.1.23c1,0,1,.75,1,1.22a1,1,0,0,0,.6,1c.18.08.45-.27.81-.51a7.8,7.8,0,0,0-.62-1.43A3.55,3.55,0,0,1,970.29,694.74Z" transform="translate(-924.54 -672.67)"/><path class="cls-1" d="M983.68,711.59c-.42-.27-.58,0-.71.41s-.25.85-.54.74c0,0,0,.16,0,.25l.25.1h0c.2,0,.5-.28.59-.11.64,1.33.67-.22,1-.24-.06-.06-.15-.1-.19-.2C984,712.21,983.83,711.68,983.68,711.59Z" transform="translate(-924.54 -672.67)"/><polygon class="cls-2" points="63.94 33.96 63.96 33.97 63.98 33.98 63.95 33.95 63.94 33.96"/><rect class="cls-2" x="956.26" y="708.46" height="0.01" transform="translate(-1116.29 349.52) rotate(-51.82)"/><rect class="cls-2" x="1002.24" y="683.15" transform="translate(-1114.05 236.11) rotate(-45)"/><path class="cls-2" d="M1039.86,699.45l.74,1.11-1.13-.35c-.09,0-.19.08-.29.13.1.1.19.22.3.32.39.34.81.66,1.17,1,.07.08,0,.35,0,.53-1.66-1.16.26.71-.36.56s-.94.93-1.86.45c-.4-.21-1.15-.84-1.37.12a3.29,3.29,0,0,0-.28-.44c-.41-.53-.1.21-.29.16-.82-.22-.54.66-.81,1a.4.4,0,0,1-.38.12c-.08,0-.15-.24-.22-.37.28,1.07-.56,1.26-1.07,1.57s-1,.06-1.57.06c-.05,0-.11-.06-.17-.1,0,.29-.22.76-.13.83.52.43.19.84.28,1.25-.59,0-.64,1-1.6.55s-1.64.21-1.77,1.3c-.28-.16-.57-.44-.83-.47-.63-.06-1.25,0-1.32-1,0,0-.27-.13-.41-.2l.21.27a.41.41,0,0,1,0,.09c-1.17,0-.3.62,0,.88,1.11,1.17-1.2.8-.38,1.8-.1,0-.2.1-.3.07-.36-.11-.51,0-.48.28,0,.07-.15.13-.24.18a1.11,1.11,0,0,1-.26.07l.08-.23.06-.22c-.06,0-.14,0-.19,0-.22.15-.44.31-.65.48-.42.36,1.06.94.11,1.24l-.58.18a3.87,3.87,0,0,0-.79.3c.14-.22.28-.46.2-.56-.33-.5-.62-.45-1.57-.18a4.2,4.2,0,0,1-1.91.09,2.38,2.38,0,0,1-1.5-.89,1.33,1.33,0,0,1-.09-.92,12.1,12.1,0,0,1-1.6-.44c.18.44.39.82.32.9s-.34,0-.67-.25a4.55,4.55,0,0,1-.82-1.11c-.12-.21-.24-.59-.1-.74.46-.57-.32-.15-.31-.31a9.06,9.06,0,0,0,.11-1.26c0-.19-.21-.51-.29-.49-2.26.61-1-.61-.9-1.38a1.28,1.28,0,0,0-.57-1.25c-.69-.24.31-.93-.25-1.09l-.35-.08c.15-.11.26-.42,0-.14-.45.5-.62-.49-.92.06-.07-.14-.86-.23,0-.42-.11-.55-.08-1.26-.42-1.66a10.91,10.91,0,0,0-1.87-1.38,1,1,0,0,1-.2-.33,5.06,5.06,0,0,0,.78-.12,5.16,5.16,0,0,0,.66-.23,2.48,2.48,0,0,0-.54-.06c-.89.11.56-1.08-.49-.9a4.21,4.21,0,0,1-.71,0,2.46,2.46,0,0,0,.22.61c.07.09.63-.19.29.25s-.51,0-.62-.17c-.33-.51-1-1.16-.81-1.59.43-1.07-.65-1.61-.44-2.51l-.11-.06a2.87,2.87,0,0,0-.28.43c-.13.27.29.79-.47.75a.23.23,0,0,1-.14-.21c0-.13.17-.27.15-.37-.08-.4.18-.81-.43-1.16-.82-.48.58-1.64-.29-2.31a1,1,0,0,1-.19-1.32c.1-.24-.41-.65-.69-.95s-.32-.29-.48-.44l-.25-.22-.12-.11-.09-.05s.37-.25.56-.4c-.46,0,0-.42-.07-.44-.69-.1-.47-.81-1-.8s-.65-.46-1-.76.52-.55.32-.65a1.29,1.29,0,0,0-1.12.12.9.9,0,0,0-.1.2s0-.09,0-.12a4.17,4.17,0,0,1,.17-.55c.09-.12.17-.1.25-.13,0-.37,0-1-.15-1.08s-.11-.32,0-.65h0c.21,0,.47.3.58.11.31-.57.48-.35.6-.09s.21.54.52.22a3.22,3.22,0,0,1-.14.44s-.1.1-.12.08a.92.92,0,0,0-.13-.21s-.09.12-.14.19l.41.4s.1,0,.15-.07l-.21.4c.4.06.84-1.51,1.3-1.1-.3-.58-.59-1.39-1.12-1.65-.26-.13-.57-.4-.9-.32s-.63.5-.8,1.6h0c-.41-.56-.18.88-.48,1.11s-.3-.17-.44-.59c0-.12-.26,0-.26.11-.07.9-.22.9-.4.88s-.37-.07-.32.6c-.08-.11,0,.68-.23-.16s-.4-.05-.51.1,0,1,.37,1.77c0,.06,0,.2,0,.15-.2-.27-.43-.57-.66-.84,0-.21-.11-.46-.28-.52s-.06.18-.07.29c-.25-.33-.5-.65-.75-.95a6.57,6.57,0,0,0-.59-.59,2,2,0,0,0,.28.46c.6.45.26.85.63,1.23.53.57.11.43.11.54s-.08.47-.77,0a3.27,3.27,0,0,1,.53.41.94.94,0,0,1,.13.39.8.8,0,0,1,.08-.16s.08,0,.13,0l.1.09c-.25.1.86.68.46.7-.09.05-.28,0-.43-.06l.13-.23,0,0a2.3,2.3,0,0,0-1.28.09c-.06,0,0,.29,0,.44l.18,0a2.93,2.93,0,0,0,.12.72c.07.16.46.4.43.43-.16.25-.27.13-.65,0-1.31-.44,0,1-.57,1.15,0,0,0,.17.08.26a1.71,1.71,0,0,1-.45,0s-.09-.21-.06-.29a3.82,3.82,0,0,1,.26-.54c-.54-.27-.73.08-.69.37.14,1-1.06.68-1.34,1.23a1.16,1.16,0,0,0,0,.42l.37-.12h.21l-.31,1c0,.1-.1.2-.08.31a.43.43,0,0,0,.28.15c.11-.05.17-.16.25-.25a2.92,2.92,0,0,1-.19.44c-.24.34-.51.62-1,.05a4.21,4.21,0,0,1-.36.37s-.16,0-.24,0c.25.12.46.58.81.22,0,0,.37.25.56.38l-.56.31a2,2,0,0,0-.08-.26.24.24,0,0,0-.14-.1l-.81-.17a2.9,2.9,0,0,1,.33.34c-.42.45.35,1.39-.46,1.6-.55.14.27.5-.09.58.23,0,.58.15.67.06.35-.34.5.09.65.22a.43.43,0,0,1,0,.46.65.65,0,0,1-.55.08c-.45-.14-.88-.34-1.32-.52a3.8,3.8,0,0,1,.8.57c.21.28.25.57-.34.31-.1,0-.29.13-.44.2a1.42,1.42,0,0,0,.14-.41c0-.12-.08-.36-.12-.36a6.82,6.82,0,0,0-.9-.07,1.31,1.31,0,0,1,.27.25c.1.22.15.44.23.66-.54-.27-.18.74-.85.35-.12-.08-.36,0-.55.08a2.68,2.68,0,0,0,.26.23s.13-.06.19-.05c.31.08.78.16.56.52s-.61.46-.91.71-.39.32-.36.48.26.65.66.27l.16.12c-.18.16-.32.41-.55.47a.31.31,0,0,0-.17.55c2.33.9-.34,1.63.46,2.45,0,0-.1,0-.13,0a1.94,1.94,0,0,1-.51-.29,7.17,7.17,0,0,1-.57-.76s-.06.1,0,.11c.81.59-1.26,1.27.46,1.84.15,0,.39.28.37.37a5.93,5.93,0,0,1-.32,1c-.13-.22-.37-.47-.37-.68,0-.45-.29-.62-.72-.74s-.61-.11-.92-.17l1,.57a.25.25,0,0,1,0,.08s-.07.08-.1.07c-.58-.11-1-.21-.58.56.3.57-.19.4-.56.2l0,0h0l-.81-.58a9.63,9.63,0,0,1,.79-.6l.2.17,0-.24a2.85,2.85,0,0,1-.51-.08c-.34-.14-.68-.31-1-.46,0-.06.05-.14.11-.16a3.33,3.33,0,0,1,.45-.13c-.19,0-.45-.06-.57,0s-.31.35-.25.47.64.57.6.61c-.37.51-.63-.35-1-.24s.8.41,0,.42c-.38,0-.68-.25-.92.23-.41.83-.16,1.21.7,1.28a3.6,3.6,0,0,0,.9-.15,1.27,1.27,0,0,0-.17-.54s-.18,0-.26,0-.47.17-.69.24c0-.14,0-.39,0-.4a1.84,1.84,0,0,1,.89-.08c.5.16,1,.91,1.48.23h0c.38.34-.11.46-.21.53a1.15,1.15,0,0,0-.33.36.93.93,0,0,0-.16.34.46.46,0,0,0,.14.44c.23.23.66.36.77.66l.07.18c-.58.2-.71,1.26-.83,1.35-.8.47-.88,3.37-2.13,1.71,1,2.14-.64,0-.44.8,0,.05-.09.19-.08.2a2.49,2.49,0,0,0,.25.49c.7-.81.16,1.57.73,1.08a1.75,1.75,0,0,1-.8,1.06,5.67,5.67,0,0,0-1.15,2.54c-.26,1,.66-.07.61,1.67-.15,3-1.07-.15-1.3,1.15-.29-1.27-.25.87-.48.18a4.66,4.66,0,0,1,.11.9c-.06.53-.2.28-.35.07s-.3-.4-.43,0c-.28.81-.81.92-1.14,1.65s.32.39.23,1.06a2.81,2.81,0,0,0,0,.57c-.4-.74-.52.59-.77.19-.47-.85-.67-.65-.72.59a.88.88,0,0,1-.12.42c-.06,0-.14-.06-.2-.11a1.13,1.13,0,0,0,.13-.27,1.05,1.05,0,0,0,0-.36c-.26-.44-.48-1.37-.58-1.15s-.19-1.2-.25-.28a15.14,15.14,0,0,0,.19,2.13v.08c-.16,0-.33,0-.38.67a2.26,2.26,0,0,0,0-.46.11.11,0,0,0-.19,0c-.08.19-.11.31-.26.36a.68.68,0,0,1-.5,0c-.36-.18-.29-.57-.31-1,0,.45,0,.34,0,.11s-.14-.55-.2-.35a.42.42,0,0,0,0,.13,1.65,1.65,0,0,0-.31-.77.56.56,0,0,0-.4-.25,4.54,4.54,0,0,1-.51-.09,1.29,1.29,0,0,1-.62-.52,5,5,0,0,0-.55-.67,1.23,1.23,0,0,0-.67-.4c-.18,0-.38.13-.59.29s-.46.31-.69.44-.16.51-.24.79c-.07-.69-.86-.73-.37-1.93.05-.12-.1-.47-.11-.87a.78.78,0,0,0-.14.2l-.27.87a8.89,8.89,0,0,1,0-1.52c.08-.42.18-1,.48-.32a1.73,1.73,0,0,0,.17.32.33.33,0,0,0,.16,0c.08,0,.12-.09.13-.2a10.54,10.54,0,0,0-.19-1.24c-.44,1.09-.23-.63-.34-.9l-.31-.83-.15-.41a1.22,1.22,0,0,1-.12-.5c-.38-.84-.74-1.77-1.15-2.56-.56-1-1.13-2-1.73-2.94-.82,1.33-.72-1-1.24-.94,0,0-.08-.18-.08-.18,1.24-1-.12-1.75-.36-2.62,0,0-.06-.11-.11-.18s-.15-.2-.17-.16l-.23.06a.91.91,0,0,0-.23.15v0l.1.24.13.29.17.36-.23-.23-.12-.12s0,0-.07-.09l-.13-.21c-.12-.22-.09-.11-.12-.14H966c.12-.13.06-.66.29-.57a3.53,3.53,0,0,0,1.08-.45l-.87.52s0-.05,0-.09c.46-.5.4-.51-.07-.38-.15.05,0-.25-.11-.31a1,1,0,0,0-.71-.18,2.23,2.23,0,0,0-.2.26c0,.15-.11.3-.17.44l-.18.26c-.34.45-.27.31-.13-.17,0,.15.07,0,.33-.5a1.45,1.45,0,0,1,.57-.59s0,0,.05.08l.28-.5c.42-.83-.26.07-.07-.45-.12.16.22-1.1-.33.28-.05,0-.18.12-.16,0,.33-1.22,0-1.54-.29-1.5s-.66.34-.9-.06-.47.91-.58,1.38c.14.74,0,.64,0,.66s0-1.14-.16-.76.09,1.29.34,2.17a2.78,2.78,0,0,1,.08.43l0,.22-.08-.37,0-.14,0,.2c0,.24.1.51.16.78a5.71,5.71,0,0,0-.28-.91c-.19-.47.17.55,0,.27,0,0,0,0,0,.08h0l0,0a.5.5,0,0,1,.06.19c0,.06,0,0,.1.31l0,.11,0,.15c-.26-.67-.27-.65-.24-.53s.13.32,0,.12-.09-.06,0,0,.12.17,0,.09c-.87.2-.79,1.2-1.45,1.43a1.73,1.73,0,0,1-1.18.06c-.72-.19.21.7,0,1.13-.4.74-.48-.61-.64-.19-.37.92-.07-.35-.23-.12s-.17.26-.3.28a2.42,2.42,0,0,1-.65,0c.05.17.06.42.16.49a4.94,4.94,0,0,0,.78.33c-.56.39-1,1.12-1.64,1.14-1,0-1.24.24-.78,1.16-.93-.34,0,1.12-1,1-.45-.06-.73,1.12-1.09,1.72,0,.06-.14.08-.21.12.27-.26-1-.15-.29-.54,0,0,0-.19,0-.29s-.27.05-.28.13a2.45,2.45,0,0,0,0,.81c0,.07.27.17.41.25-.33.23-.66.45-1,.69a2.34,2.34,0,0,0-.53.51c-.54.77-1,1.64-1.53,2.41s-1.14,1.27-1.68,1.95c-.35.43-.67.88-1,1.32s-.81.78-.94,1.3a6.52,6.52,0,0,1-2.16,3.07c-.53.47-.73,1.3-1.43,1.47-.86.2.14,1.13-.45,1.16-1.26.08-.3,1.62-1.5,1.9-.39.1-1.23-.19-1.26.22-.05.58-.52.6-.86.85s-.35.78-.69.91a10.26,10.26,0,0,1-2,.37s-.05.09,0,.1c1.22,1.1.44,1.09-.2,1.17l-2-1.17c.31,0,.55-.11.58-.56.07-1,1.68-.92,1.51-2.06,0,0,.32,0,.33-.05,0-.32.08-.85-.07-.93-.53-.28-.37.29-.56.46s-.32.44-.59,0a4.39,4.39,0,0,0-.4-.56c-.21.7-1.22,1-.78,2,.06.15,0,.32-.08.48a1.82,1.82,0,0,0-.37-.13,1.19,1.19,0,0,0-.53,0c-.06,0-.1.27-.06.3.91.63.52.57.12.51l-2.49-1.46c.08-.06-.52-.34-.27-.32a2.53,2.53,0,0,0-.36-.07h0l-.27-.16a1.19,1.19,0,0,1-.12-.29c-.09-.37.49-.88-.5-1a.72.72,0,0,1-.34-.27s0-.14.09-.22.1.15.18.19c.7.44,0-.59.51-.37.27.12.65.42.77.36.43-.23.24-.48-.22-.76s-.48-.34.15-.93c.1-.09-.3-.55-.23-.74.14-.38.14-1,.94-.78,0,0,.06-.13.11-.13.43,0-1.15-.57,0-.42a2,2,0,0,0,0-.84c-.31-1.22.84.32.85-.27.41.34.61.44.31-.17,0-.07.24-.24.4-.3s.22.09.33.15a3.3,3.3,0,0,0-.3.22s0,.11,0,.17c.3,0,.72.06.88-.09a25.25,25.25,0,0,0,1.89-2c.12-.14.05-.39-.24-.16-.09.07-.21.13-.24.23-.12.4-.23.94-.84.41-.19-.17.3-.89.1-1.17-.75-1,1.69-.72.57-1.83a1.2,1.2,0,0,1-.18-.26c-.07.08-.2.15-.21.25,0,.64,0,.64-1,.63a5,5,0,0,0,1-1.29c.28-.77.66.6.76,0,.05-.28-.26-.66-.24-1s.25-.48.39-.71c.13.26.25.51.4.77,0,0,.13,0,.2.06,0-.24-.08-.65,0-.69,1-.39.39-1.3.36-1.94,0-1.21,2.41-3.6,3.73-3.32,1.1.22-.35-.33.07-.33,1.07,0,.51-.93.32-1.1-1.07-.92.37-.62.32-.94-.09-.7.48-1,.77-1.4,0-.07.16-.17.21-.15,1.34.66-.22-1.43.94-.93-.67-.92,1.82-.17.62-1.38.81.81,1.05-.48,1.71-.2-.07.06-.21.16-.19.19s.2.35.3.36a4.51,4.51,0,0,0,.82,0c-.15-.07-.31-.13-.45-.21a.18.18,0,0,1,0-.17c.25-.3.43-.76.78-.86.69-.2.94.23.77.87.08,0,.21.1.22.08l.69-1-.6-.44c-.21-.15-.57-.29-.59-.42-.06-.56-.39-1.42.78-1.08a1.07,1.07,0,0,0,.1-.26l.14-.54a2.14,2.14,0,0,0,.16.42c.1.18.28.5.36.5a5,5,0,0,0,.94-.25l-.83,0h-.26s0-.13,0-.13c.84,0,1.1-.68,1.5-1.2l-.13-.35a.15.15,0,0,0,0-.16c0-.6-.08-1.21-.08-1.82,0-.19.15-.36.23-.54.4.5.6-.7,1.06,0,.09.14.4.16.61.24-.13-.15-.27-.3-.39-.46s-.23-.34-.2-.38a15,15,0,0,1,1.26-1.26,2.25,2.25,0,0,0,.29.58,2.33,2.33,0,0,0,.55.43s.08,0,.12,0-.24-.36-.21-.4c.26-.27.77.34,1.19-.55.23-.52.35-1.6-.08-1.84-.08,0-.1-.28,0-.36.49-.61,1.26-1.77,1.55-1.77.79,0,1-1.08,1.52-1.3h.17a2.49,2.49,0,0,0,.62-.1c-.11.29-.22.58-.32.87a2.67,2.67,0,0,0-.22-.41.28.28,0,0,0-.15-.08h-.1c-.2.33-.37.66-.54,1a.76.76,0,0,0,.26,0,3.17,3.17,0,0,0,.41-.21c0,.11,0,.24,0,.31a2.06,2.06,0,0,1-.46.47,3.31,3.31,0,0,1-.67.29l.23,1c.27-.17.53-.35.8-.5s.67-.42.7-.36c.21.61-.31.29-.43.51s-.11.25-.17.38a5.57,5.57,0,0,0,.86-.37l.07-.06c.86-.65,1.73-1.35,2.63-2,0,0,.06-.22,0-.25s-.25-.23-.41-.2c-.86.16-.13-1.1-.68-1.21l1,0c-.11.21-.22.43-.32.65,0,0,0,0,.08.07.1-.14.27-.28.3-.41a3.57,3.57,0,0,0,.07-.79,2.85,2.85,0,0,0-.08-.51,2.21,2.21,0,0,0,.35.08,10.62,10.62,0,0,1,2.79.92c.68-2.14,1.12-.14,1.6,0,1.07.41.34-.49.63-.6a2.46,2.46,0,0,1,1.73.18c.55.24,1,.6,1.52.83.92.5,1.9.67,2.41,1.84a8.74,8.74,0,0,1,.32,1.14c-.15,0-.37,0-.4,0a4.83,4.83,0,0,1-.17-.81l-.5.63a5,5,0,0,1,1.32.8,2.73,2.73,0,0,1,.17,1.33c0,.64.24.69.51.77s.5.17.39.75c0,.09.08.26.13.4a.81.81,0,0,1-.31-.1.38.38,0,1,0-.71.12,7.79,7.79,0,0,0,.65.52c.23.13.49.12.72.3,0,0,0,.17,0,.39s.09.53.11.63.07.42,0,.44-.1-.08-.12-.07,0,0,0,.06l0,.07,0-.1c-.14-.32-.33-.84-.38-.69s-.21.56-.12.76l.1.23-.07-.19.2.29.09.14s.08.15,0,0l-.07-.15s0,0,0,0a0,0,0,0,1,0,0,5.47,5.47,0,0,1-.53.51c-.12.11-.3.22-.45.34s0,.06,0,.07l.43.06c-.14.06-.29.1-.45.15a.76.76,0,0,0-.14.1,3.65,3.65,0,0,0,.18.34s.11,0,.17,0c-.12-.08.22-.29.48-.51s.46-.4.11-.34c0,0,0-.18.3-.32.08,0,.08,0,.14,0,.54-.51.45-.66,1.13-1.1a10.22,10.22,0,0,1-.79.81.41.41,0,0,0-.07.11l.28-.25.32-.32c-.16.19-.31.39-.48.62a2.44,2.44,0,0,1-.28.3s0,0,0,0l.38-.43.4-.46a2,2,0,0,0-.13.25c-.09.2-.26.79.36-.35.1-.18.13-.21.12-.18-.09.23-.16.43-.24.64,0-.06,0-.17,0-.17a1.77,1.77,0,0,0-.14.23,9.37,9.37,0,0,0-.8,1.52c-.1.33,0,.17.12-.09l.2-.43c.49-1,.27-.32.42-.52v0a2,2,0,0,0,.3-.8l.05-.15.11-.21-.16.57-.1.31,0-.08c.32-1,.23-.84,0,.47-.07.42-.05.28-.07.4l0-.28,0-.23-.2.79c0,.23-.08.47-.11.71l.09-.46.17-.39-.06.37a3.36,3.36,0,0,0-.17.85l-.15.49.06.58c.08-.59.19-1.4.26-1.71.19-.9.36-2,.42-2.54s-.07.76-.14,1.39v.12c.11-1.13.11-1.1.11-1s0,.28,0-.72v0c0,1.45,0-1.06,0,.92a2.2,2.2,0,0,0,0,.31,1.47,1.47,0,0,0,0-.31s.07.27,0-.1l0-.75a12.54,12.54,0,0,0,.24,1.29c.06.3,0,0,0-.3s-.11-.63-.08-.52-.3-1,.18.34.43.93.27.51-.41-1-.33-.91-.1-.31,0-.22.36.32,1.16.91c0,0,0,0,.07,0l-.22-.19-.47-.38a1.14,1.14,0,0,1,.21,0s.25.17.39.26a5.25,5.25,0,0,0-.61-.45c-1.05-.65.23,0-.42-.32a11.38,11.38,0,0,0,.63-1.35c.18-.38.24.42.63,0,.74-.68.44-1.58.7-2.35.15-.42-.12-1.12.71-1.15-.49-1.13.81.08.76-.43a.72.72,0,0,0-.2-.52c-.18-.14-.67.46-.56.05a2.75,2.75,0,0,1,1.72-2,2.66,2.66,0,0,1,.49-.1,3.17,3.17,0,0,1-.38-.17c-.18-.09-.34-.19-.51-.29l.55,0c.25,0,.71.37.67-.15,0-.25-.41-.51-.48-.78s.17-.4.27-.61l.61.59a2,2,0,0,0-.11.47,1.47,1.47,0,0,0,.11.38c.35-.49.71-1,1-1.47,0,0-.08-.18-.13-.27l-.54.24c.7.57.11.47-.26.49-.28-.35-.6-1.06-.14-.95s.67-.31.76-.37c.58-.39-.38-.37-.5-.78-.32-1.1.95-.31,1-.84,0-.12.66.23.39-.06s-.12-.44-.22-.6c-.39-.68-.68-1.16.45-1.36.32-.05.24-1.08.49-1.6.34-.71.45-1.76,1.82-1.46.05,0,.12-.12.17-.18-.86-.67-.12-.57.25-.85s-.14-1,.28-1.49c.21-.25.4-.52.59-.79l.77-1.18c.65-1,1.28-2,1.89-3a4.33,4.33,0,0,1,1.19-1.22,2.61,2.61,0,0,0,1-1.38s.2.06.26,0,.33-.41.52-.52a8.14,8.14,0,0,1,2.29-.88c.52-.1.06-.65.83-.85a13.23,13.23,0,0,1,6.59-.18,9.79,9.79,0,0,1,3,1.17,12.26,12.26,0,0,1,2.37,1.87c-.4.33.19.76.26.77.75-.08,1.1.64,1.35,1.38s.45,1.47,1.19,1.67a2.7,2.7,0,0,1,.35,1.6,2.44,2.44,0,0,0,.7,1.87,8.84,8.84,0,0,1,.76,1.3l.24.52c.06.12.1.24.15.37a13.43,13.43,0,0,1,.35,1.58,12.71,12.71,0,0,0,.58,1.6s0,.17-.1.21c-.25.17-.51.31-.77.46.43.28.64-.29,1-.33l.11,0-.37.78c.17,0,.47-.15.51-.1a2.71,2.71,0,0,1,.72,1c.16.58.59,1,.75,1.66a12.43,12.43,0,0,0,1.82,3.15,10.71,10.71,0,0,1,1.75,3.15c.19.82,1.06,1,1.12,1.82,0,.42-.07,1.08.17,1.24.68.45.19,1.05.27,1.55a3.38,3.38,0,0,0,.92,1.51,4,4,0,0,1,.53.72,1.94,1.94,0,0,1,.17.42l.08.3a.73.73,0,0,1,0,.25c0,.13.07.13-.06-.32a2.94,2.94,0,0,0-.61-1.05,4.61,4.61,0,0,0-1.73-1.27c-.65-.26-.93-.23-1-.19s0,.17,0,.26,0,.17-.36.19a15,15,0,0,0-1.58.11c-1,.2-1.16.3-.87,0a3.42,3.42,0,0,1,.71-.61,3.72,3.72,0,0,1,1.76-.62c.66-.06.81-.18.76-.79.16.07.41.24.47.19a18.93,18.93,0,0,1,1.36-1.46,16,16,0,0,1,2.48-1.77c1.75-1,3.7-1.63,5.15-3.08.54.93.33-.86.85-.12,0,0,.28-.11.43-.17l-.32-.11a.29.29,0,0,1-.13-.11c0-.06,0-.15.06-.17l1.48-.38c.06,0,.13,0,.16-.06.43-.56.86-1.12,1.27-1.7,0,0-.13-.28-.11-.29.17-.11.48-.29.51-.25.27.34.45.34.6.25Zm-94.19,12.7.76-.65,0-.44c-.5,0-1.22-.13-1.46.14C944.29,711.93,946,711.43,945.67,712.15Zm-3.43,10.49,0-.26c.69.2.57-.64,1.09-.69a1.24,1.24,0,0,0,0-.27c-.53-.06-.9.13-1.06,1l-.07,0h0c0-.06,0,0,0,0Zm-1.4,7.55a4.69,4.69,0,0,0,1,.11c-.13-.31-.26-.62-.4-1a3.37,3.37,0,0,0-.81.33C940.56,729.68,940.73,730.15,940.84,730.19Zm-2.3,1.2c-.17-.26-.41-.77-.5-.76-1,.06,0,1.51-1.18,1.49l.09.33C938.13,732.74,937.44,731.09,938.54,731.39Zm1.77,1.07c-.13,0-.38-.05-.38,0a4.66,4.66,0,0,0,0,.65l1.13,0-.16-.36a1.36,1.36,0,0,1-.39.12C940.06,732.81,941,732.44,940.31,732.46Zm-.1-1.46c.08-.17-.09-.48-.15-.72l-.92,1.54.25.34A8.4,8.4,0,0,0,940.21,731Zm4.84-2.33a3.84,3.84,0,0,0-.56.5l.35-.09.2-.05a1.84,1.84,0,0,1-.09.42c0,.07-.17.09-.26.14-.76.37-1.77.49-1.88,1.5h0c-.49.23-.73.54-.23,1.11a1.61,1.61,0,0,0,.26-.48,2.26,2.26,0,0,0,0-.63h0c.2.08.34-.57.57.07a24.69,24.69,0,0,1,2-1.55c.17-.12-.46-.52.14-.36,0-.11,0-.25,0-.32S945.09,728.65,945.05,728.67Zm3-4.13c-.3.3-.59.62-.86,1,0,0,.07.21.15.27a.73.73,0,0,0,.39.13,5.71,5.71,0,0,0,.71-.08,1.11,1.11,0,0,0-.12-.23c-1.45-.08-.38-.54-.3-.83Zm-2.81-1.9h.3c-.18-.2-.35-.41-.53-.6,0,0-.19.06-.25.12s-.13.23-.21.33a1.41,1.41,0,0,1-.22-.11,1.37,1.37,0,0,0,.21-.28c.3-.77.6-1.06,1,.14a.4.4,0,0,0,.21.12c.1,0,.28-.11.26-.14-.09-.28-.23-.55-.35-.83-.32.17-.91-.64-1.13.11-.09.3-.59.42-.81.7s-.46.56.18.83c-1.35.25-.82,1.91-1.92,2.38-.15.07-.14.41-.14.64a.56.56,0,0,0,.32.3,4.11,4.11,0,0,0,.7,0c-.22.2-.45.38-.65.59a4.86,4.86,0,0,0-.42.59c.07,0,.17.13.2.11a3,3,0,0,0,.6-.37,2.31,2.31,0,0,0,.34-.42l.1,0c0,.11,0,.31.08.32.31.05-.49.5.22.37-.18.39.06.61.48.71.09,0,.22-.1.27-.19s.2-.48.3-.72c0,.14.14.3.12.43a6.71,6.71,0,0,1-.15.78c.17-.14.44-.24.5-.43a1.24,1.24,0,0,0,0-.85c-.45-1.06-.94,0-1.42-.25.95-.54-.49-1.19-.29-1.91s.69-1,.89-1.58c0-.07.19-.11.29-.09a.34.34,0,0,1,.21.21.26.26,0,0,1-.12.25c-.91.3.37,1.37-.39,1.71.07,0,.18.14.22.12s.25-.1.24-.17c0-.47.23-.3.5-.11h0c0,.42,0,.71.51.33,0,0,.37.31.59.44a2.31,2.31,0,0,0,.52.19c0-.13,0-.37,0-.39-.53-.21-1.06-.38-1.6-.57h0c.43-.15-.67-.45-.07-.69.32-.13.39-.64.55-1a.86.86,0,0,0-.34-.25c-.81-.26.71-.57-.2-.82Zm2.87-.3a4.4,4.4,0,0,0-.39.35c-.16.19-.3.4-.44.6-.47-.16-.38-1.23-1.23-.77.16.16.72.16.38.58,0,0,.32.37.49.56.09-.15-.35-.73.36-.37a6.94,6.94,0,0,1,.78.22c.08,0,.11.22.17.33,0-.43,0-.87,0-1.3C948.2,722.48,948.11,722.41,948.07,722.34Zm.9-1.71,0,.56c0,.24,0,.47.06.71-.93-.46-.13.48-.45.51.29,0,.64-.07.85.07s.76-.29.93.34c0,.07-.09.14-.14.21s.14,0,.17,0,.2-.11.22-.2c.16-.58-.55-.32-.66-.59-.41-.26-.44-.38-.15-.56.53-.32.28-1.09.08-1.33C949.44,719.82,949.66,721.16,949,720.63Zm1.72-1.41c-.6,0,1.17,1.1-.21.91l1.28.9c-.16-.43-.33-.86-.6-1.59A.73.73,0,0,0,950.69,719.22Zm.52-3.39c-.25-.31.71-.14.13-.58-.26-.54,1.83.3.43-.91a2.42,2.42,0,0,1-.4-.66,6.67,6.67,0,0,1-.76.37,1.29,1.29,0,0,1-.55,0c-.29-.06-.7-.28-.85-.18-.34.24-.76.59-.77,1,0,.73-1.38.64-.81,1.63-.73-.2-.72.48-1.06.73l-.22-.53a2.88,2.88,0,0,0-.37.69c0,.06.31.32.51.39.71.26-.2.53.17.78l-.08.14-.35-.38a1.06,1.06,0,0,0-.15-.15c-.07,0-.2,0-.21,0-.26.78.36,1.91-.71,2.35a2.35,2.35,0,0,1-.54.06l1.34.92c-.55-.73.52-.38.48-.75a.48.48,0,0,0-.17-.29c-.07,0-.2,0-.3,0l.19-.54.45.67c.08.11.14.23.21.34l.26-.66a2.21,2.21,0,0,1-.34-.18,2.66,2.66,0,0,1-.35-.32l.26-.2c.4.62.91.12,1.34.35.11.06.31.2.3.25a1.77,1.77,0,0,1-.21.41l1.41-1.23s0-.24,0-.25c-.81-.07,0-.8-.6-.93-.09,0-.19.05-.28.08,0-.13-.1-.31,0-.39.45-.72,1-1.39,1.46-2.08.13.2.1.73.54.27C950.65,715.88,951,715.89,951.21,715.83Zm5.46-2.15a4.36,4.36,0,0,0-.78-.54c-.61-.26-.07.33-.25.41h0c-1.43-.52-.72,1.48-1.87,1.31a.43.43,0,0,1,0,.19,3.23,3.23,0,0,1-.15.7,1.37,1.37,0,0,1-.43-.16c-.59-.44-.7.75-1.35,0a.46.46,0,0,0,0,.2.56.56,0,0,0,.16.21c.6-.11.47.38.54.59s0,.72.55.43a3.64,3.64,0,0,1,.71-.36c.31-.1,1-.09.95-.19-.11-.68.78-.35.75-.4a2.17,2.17,0,0,1,.11-2.57h0c0,.17.72.36.12.52-.12,0-.17.2-.24.32l.11.08c.1-.09.23-.16.29-.29s.14-.5.26-.73A4,4,0,0,1,956.67,713.68ZM953.23,710c-.27.2-.69.35-.78.63s.27.37.51.07.37.73.69.24C953.82,710.69,953.06,710.51,953.23,710Zm2.2-3.45V707c0,.51-1,.86.06,1.57.11.07-1-.14-.21.44a.74.74,0,0,0,1-.53h0c.73.5-.89.58,0,1.11-.08,0-.21.14-.23.11-1.12-1-1.88-.45-2.64.07,0,0,0,.2.06.31a.18.18,0,0,0,.14,0,9,9,0,0,1,1.93-.18,5.14,5.14,0,0,1,1.55.69c.06,0,.11.41,0,.48s-.72.15-.58.67a4.89,4.89,0,0,0,.87-.49,7.28,7.28,0,0,0,.66-.7c.29.47.91-.28,1.11.52.24-.47-.47-.54-.54-.85s.06-.49-.29-.25c-.06,0,.13.42.08.44-.23.08-.72-.42-.75.16-.37-.57-1.68-.77-1-1.73.13-.17.6-.17.24-.56-.06-.07-.44.11-.67.17h0l-.46-.24a2,2,0,0,0,.37-.09,2.37,2.37,0,0,0,.3-.19Zm3.49,1a8.33,8.33,0,0,1,.83-1.34c.53-.61.48-1.58,1.27-1.6.1,0,.08-.45.12-.72a1.39,1.39,0,0,0,0-.33l-.24.13a3.79,3.79,0,0,0-1.14.76c-.22.29-.42,0-.65,0s-.26.18-.16.1c0,.56-.06.81-.1,1,0,0-.14,0-.15,0a.8.8,0,0,1-.21-.33.9.9,0,0,1,0-.36c-.1,0-.27.08-.28.16s.08.31.08.45a3.83,3.83,0,0,1,0,.9s-.42-.06-.64-.12a.26.26,0,0,1-.13-.18c0-.06.09-.11.15-.12s.66.47.51,0-.79-.79-1.24-1.13c0,0-.47.25-.44.36C956.83,706.6,958.18,706.73,958.92,707.59Zm4.15.5c-.35-.43-.7-1.05-1.09-1-.06,0-.12,0-.26,0a3,3,0,0,1-.41,0c-.27,0-.52-.06-.61.07-.33.43.6.21.63.64a5.38,5.38,0,0,1-.9,0c-.13,0-.29-.25-.43-.39-.3.47,1,1,.33,1.43,0,0,.11.12.15.12.67,0,1.19-.2,1-1.06a1.41,1.41,0,0,0,.74.12.36.36,0,0,0,.24-.16c0-.06,0-.13,0-.25s.12,0,.17.08c.63.76.1.27.15.88,0,.12-.15.28-.24.42.23-.13.56-.24.68-.41A1,1,0,0,0,963.07,708.09Zm.24-2a2.9,2.9,0,0,0-.19-.34s-.07,0-.07,0a1.17,1.17,0,0,1,0,.3c-.09.34-.36.25-.57.09-.56-.4,0,.63-.27.52.1.2.2.4.31.59a2,2,0,0,1,.17-.27c.16-.2.48.16.76.71,0,.07.08.29.13.43,0-.05.06,0,0-.16,0-.3-.42-.62-.3-.79a.64.64,0,0,0,.06-.14A2,2,0,0,0,963.31,706.12Zm3-6.18s.1-.18.16-.27l-.21,0a3.23,3.23,0,0,0-.93.29,2.81,2.81,0,0,1,0-.61A1.2,1.2,0,0,1,966,699a.39.39,0,0,1,.29.12c0-.11.06-.2,0-.26s-.19-.3-.27-.27c-.56.25-1.15-.25-1.62.72a3.89,3.89,0,0,1-.66-.27s0-.13,0-.2.11-.37.17-.55c-.14.18-.28.35-.42.56.32,0-.43,1.29.21.85-.48,1.07.41.64.21.77-.38.26-.82.07-.82,1-.24.66-.33,1-.43,1.31,0,0,0,0,.08,0,.78-.15.69-.3.88-.66.48-1,1.35-1.7,2-.74C965.81,701.68,965.7,699.9,966.31,699.94Zm.75,0a1.94,1.94,0,0,0,.05-.33,4.78,4.78,0,0,0-1.09.68,6.27,6.27,0,0,1,.39,1.27C966.63,701,966.86,700.47,967.06,700Zm4.06-4.33a7.8,7.8,0,0,0-.62-1.43,3.55,3.55,0,0,1-.21.54c0,.07-.13.1-.2.15s0-.19,0-.24a5.67,5.67,0,0,0-1.08-1.11s-.28.07-.39.16.09.23.1.23c1,0,1,.75,1,1.22a1,1,0,0,0,.6,1C970.49,696.22,970.76,695.87,971.12,695.63ZM969,702.85c.33-1.3-.2-.67-.5-.47,0,0,0-.38-.08-.52s-.15,0-.23,0c-.26,1.16.23.77.45,1C968.7,702.9,968.8,702.85,969,702.85Zm3,6.18c0,.05-.1.05-.15.07l0,.64.6.15c-.06-.76-.09-1.47-.09-2.12l-.55.29-.23.12c0-.11,0-.22,0-.32a6.83,6.83,0,0,0,0-1.11c0-.08-.53-.1-.68,0-.58.51-.73.48-.73.27a.62.62,0,0,1,0-.18.51.51,0,0,1,0-.23,1,1,0,0,0,.09-.31,1.56,1.56,0,0,1,.17-.5c-.18.24-.62.43-.54.63a1.81,1.81,0,0,1,0,.42,5.45,5.45,0,0,1,0,.56,1,1,0,0,0,.47.88.87.87,0,0,1,.2.71c-.63.89-.46,1.25-.14,1.41s.79.13.91.44a.94.94,0,0,0,.2-.29c.07-.23.1-.47.15-.69-.07.09-.14.22-.22.26-.59.35-.29-.35-.32-.64,0-.06-.16,0-.25-.08.46-.38.31-.71.16-1a1.08,1.08,0,0,1,0-.35c.36.26.72.48,1.05.68A2.57,2.57,0,0,1,972,709Zm.44,3.2-.12-.09a1.47,1.47,0,0,1,0-.53c0-.16-.64-1,.17-.48.28.18.5,0,.72-.54-.2-.19-.39-.5-.65-.57s-.48.27-.61.54a1.18,1.18,0,0,0,.32,1.58v.11Zm4-4.43a3,3,0,0,0-.25-.75s-.17.34-.27.51a4.43,4.43,0,0,0-.07.89C976,708.46,976.14,708.23,976.42,707.8Zm-.84,10.08c-.24-1.31-.38-2.55-.51-3.73-.24.62-.52,1.26-.81,1.88a1.48,1.48,0,0,0,0,.27c.3.31.61.61.87.93a2.73,2.73,0,0,1,.06.76c0,.24,0,.51,0,.76l-.25-.17-.06,1.41C975.05,719.39,975.28,718.79,975.58,717.88Zm1.22,2.19c-.07-1.37-.15-1.31-.27-1s-.27.78-.36.07a20.86,20.86,0,0,0-.4,2.33c0,.63.25-1.09.34.15a7.29,7.29,0,0,0,.46-.86l0-.33C976.63,720.28,976.8,720.15,976.8,720.07Zm.63.46a9.92,9.92,0,0,0-.31-1.38c0-.06,0,.1-.11.32.15.75.25,1.3.36,1.86C977.38,721.41,977.41,720.8,977.43,720.53Zm2.25.64c-.1-.53-.18-1.14-.29-1.5-.35-1.33-.34,1.05-.63,1.57.12.11.2.07.23.27s-.25,0-.08.71a1.92,1.92,0,0,0,.11-.45c.06-.36.11-.77.16-1.17,0,1.48.33-.1.42.91C979.63,721.39,979.68,721.19,979.68,721.17Zm-1.27-13.07a2.35,2.35,0,0,0,.18.58,8.51,8.51,0,0,0,0-1.14c-.38-1.62,0,.6-.32-.6C978.29,707.32,978.34,707.74,978.41,708.1Zm1.37,6.9c-.1.49-.14-1.61-.23-.78,0,.4,0,1.17,0,1.89l.05,1.34,0,.69v.55c.17,0,.36.1.53,0a6.21,6.21,0,0,0,.13-1.25.89.89,0,0,0-.32.05c-.08,0-.14.13-.21.18,0-.66,0-1.32,0-2,0-.07,0-.11,0-.1.32,1.53.13-.19.12-.3C979.84,714.44,979.83,714.76,979.78,715Zm.37-3c-.56-1.06,0,1-.13,1.39a16.74,16.74,0,0,0,.07,2.06,5.35,5.35,0,0,0,0-3.24A.47.47,0,0,1,980.15,712Zm3.65,3.46a4.26,4.26,0,0,1-1.33.31c.41.18.4,1.37.49,1.46.35.23.24-1.47.78-.84Zm.31-2.92c-.15-.32-.28-.85-.43-.94-.42-.27-.58,0-.71.41s-.25.85-.54.74c0,0,0,.16,0,.25l.25.1h0c-.41-.1-.33.63-.22,1.3,0,.27.37,1.27.59.7.15-.36,0-.57-.21-.89a5.41,5.41,0,0,1-.16-1.11h0c.2,0,.5-.28.59-.11.64,1.33.67-.22,1-.24C984.24,712.67,984.15,712.63,984.11,712.53Zm.92-7.75c-.2.82-.38,1.19-.58,1.28s-.37-.15-.59-.46c0,0-.59,0-.62.06-.12.36.15.49.45.59s.63.18.6.55C985.11,706.84,985,706.08,985,704.78Zm-3.83-3.29.64-1.13a4.88,4.88,0,0,0-1.16.52c-.16.11-.08.47-.1.72-.56-.71-.82,0-1.19.1-.18,0-.4.41-.34.49.77,1,1.25,0,1.9,0C981.07,702.15,981.12,701.72,981.2,701.49Zm4.9.75c-.51.33-1.18.63-.69,1.46l.13.2c.38-.39.77-.76,1.11-1.18A3.16,3.16,0,0,0,986.1,702.24Zm-4.52-2.51a3.4,3.4,0,0,0-.14-.75l-.9,1c.39.4.3-.72.73.06C981.38,699.94,981.58,699.85,981.58,699.73Zm7.7,2a1.76,1.76,0,0,0,0-.23c-.38.38-.78.76-1.15,1.17,0,0,.13.2.16.25C990,703.39,988.35,701.76,989.28,701.74Zm.83.09c-.09-.05-.35.25-.59.43,0,.09.12.33.15.33.44,0,.88-.05,1.32-.09A5.53,5.53,0,0,0,990.11,701.83Zm-8.31-5.3c-.47.69.29.66.6.76.5.37.78.26,1-.07l-.23,0c-.34-.07-.28-.16,0-.25C982.7,696.69,982.09,697.24,981.8,696.53Zm4.58-8.88c-.16,0-.32.3-.59.57.18.31.33.85.6.95.56.19,0-.36.16-.41s.49-.4.6.15c1,0,.12-.58.05-.81S986.67,687.69,986.38,687.65Zm5.28-1.47c-.15.09-.4.14-.43.27a4,4,0,0,0,0,.92l.62,0Zm2.4.52a4.6,4.6,0,0,0-1.29.39c-.07,0,.11.43.17.66l1.54-.38A4.33,4.33,0,0,0,994.06,686.7Zm4-4.28c-.48.25-.28-1.1-.4-.91-.6.94.33,1.14.56,1.73a1.63,1.63,0,0,0,.17.22,6.23,6.23,0,0,0,0-.94C998.32,682.16,998.22,682.35,998.08,682.42Zm0-2.38s-.07,0-.08,0a8.25,8.25,0,0,0-1,1.48l-.06-.06v0c0-.09,0,0,0,0l0,.14,0-.06c.09.11.22.26.24.23.24-.38.49-.8.78-1.21A1.58,1.58,0,0,0,998.07,680Zm.25-4.5a7.69,7.69,0,0,0-1.27.25c-.11.18-.24.43-.36.68a9.11,9.11,0,0,1,1.3.3C997.71,676.34,997.53,675.87,998.32,675.54Zm3.1-.08c-.16,0-.36.09-.36.13,0,.37.08.74.12,1.1.27,0,.6.64.71.1S1001.59,675.85,1001.42,675.46Zm3.32,3.41a8.21,8.21,0,0,0-1.13.61c.11.12.22.37.29.36a4.29,4.29,0,0,0,1.2-.29C1005.24,679.48,1005.05,679.1,1004.74,678.87Zm4.84,8.78c.11-.29.32-.57.24-.7a4.92,4.92,0,0,0-.74-.62c-.18.46-.35.84.14,1.1A3.93,3.93,0,0,1,1009.58,687.65Zm.76-.14c-1,.39-.56.94-.48,1.57l.29.26.49-1.72S1010.41,687.47,1010.34,687.51Zm-2.55,1a9.34,9.34,0,0,0-.68,1c.42,0,.83.06.92-.05a1.56,1.56,0,0,0,.26-.82C1008.3,688.53,1007.82,688.42,1007.79,688.46Zm-1,2.67c.07-.69.15-1.37.26-2.06l-.95,0c.16.66.33,1.32.54,2C1006.66,691.12,1006.75,691.12,1006.8,691.13Zm6.37,5.51a3.4,3.4,0,0,0,.34-1c0-.17-.39-.28-.61-.42-.14.41-.95.87-.19,1.3Zm.35,4.85c.48-.34-.3-.09,0-.71-.39.37-.55.59-.63.58a1.34,1.34,0,0,1-.49-.25l-.12.85A5.2,5.2,0,0,0,1013.52,701.49Zm19.7,2.86-1.11.3-.23.43a6.21,6.21,0,0,0,1.27.1C1033.25,705.16,1033.2,704.64,1033.22,704.35Z" transform="translate(-924.54 -672.67)"/><path class="cls-2" d="M1011.84,702.94l0,.07C1011.85,703,1011.85,703,1011.84,702.94Z" transform="translate(-924.54 -672.67)"/><polygon class="cls-2" points="74.4 13.39 74.4 13.39 74.39 13.38 74.4 13.39"/><polygon class="cls-2" points="74.4 13.39 74.39 13.38 74.39 13.38 74.4 13.39"/><polygon class="cls-2" points="11.12 50.73 11.13 50.72 11.11 50.72 11.12 50.73"/><path class="cls-2" d="M972.32,712.25l.12,0-.12-.09Z" transform="translate(-924.54 -672.67)"/><polygon class="cls-2" points="31.09 40.88 31.1 40.88 31.1 40.87 31.09 40.88"/><path class="cls-2" d="M996.94,681.41l0,.14,0-.06-.06-.06Z" transform="translate(-924.54 -672.67)"/><polygon class="cls-2" points="20.36 52.78 20.36 52.78 20.36 52.77 20.34 52.78 20.36 52.78"/><polygon class="cls-2" points="58.15 40.42 58.15 40.42 58.15 40.42 58.15 40.42"/><path class="cls-2" d="M942.21,722.36h0l0,.29,0-.26Z" transform="translate(-924.54 -672.67)"/><polygon class="cls-2" points="18.25 58.43 18.26 58.42 18.25 58.42 18.25 58.43"/><polygon class="cls-2" points="40.36 35.26 40.36 35.27 40.37 35.25 40.36 35.26"/><path class="cls-2" d="M964.15,707.56v.22s0,0-.07,0l0-.3c0-.08,0-.27,0-.31,0-.2,0-.35-.08-.52v.63a.4.4,0,0,1-.19,0,.93.93,0,0,1-.05-.14l.06.49.06.24c.08-.53.2.43.22,1.12,0,.88,0,0,0,.51l.06-.62.17-1.54A1.23,1.23,0,0,0,964.15,707.56Z" transform="translate(-924.54 -672.67)"/><path class="cls-2" d="M940.19,736.61c-.1,0-.19.15-.3.16-.62,0-.14,1.22-1.17.84-.16-.05-.24,0-.29,0l1,.58a12.93,12.93,0,0,0,.82-1C940.33,737.07,940.21,736.81,940.19,736.61Z" transform="translate(-924.54 -672.67)"/><path class="cls-2" d="M964.45,708.14c0,.08-.05.22-.05.23s0,0,0,0l0-.2c.2-.8.28-1.12,0-.32-.16.58.21-1.33,0-.54l-.17,1.54c0,.73-.07.64,0,.38s.19-.67.2-.58l.2-.71,0-.17C964.54,708.18,964.79,706.45,964.45,708.14Z" transform="translate(-924.54 -672.67)"/><path class="cls-2" d="M935.46,726a9.18,9.18,0,0,0,.82-1.76c-.86.6-1.52,1-2.13,1.52,0,0,.24.53.26.52C934.78,726.21,935.29,726.22,935.46,726Z" transform="translate(-924.54 -672.67)"/><polygon class="cls-2" points="40.36 35.26 40.37 35.25 40.37 35.25 40.36 35.26"/><path class="cls-2" d="M965.21,707.09c-.07,0-.11-.41-.39.42s.23-1.31-.17.26l0,.17c-.35,1.47-.21.81.27,0A7.35,7.35,0,0,0,965.21,707.09Z" transform="translate(-924.54 -672.67)"/><path class="cls-2" d="M949.57,704.49c-1.08-.46-.34,1.1-1.14,1.1,0,.2-.08.38-.11.55.39-.17.89-.25,1.14-.54S950.07,704.71,949.57,704.49Z" transform="translate(-924.54 -672.67)"/><path class="cls-2" d="M965.15,709.08s0,0,0,0c0-.16.35.57.37.49.18.12.39.24.55.36l-.07-.38,0-.19a1,1,0,0,0-.09-.31l-.09-.27,0,0,0,0,.07-.11c.12-.13.06-.66.29-.57a3.07,3.07,0,0,0-.2.36l-.32.11c-.1.11-.18.29-.41.14C965,708.28,965.3,709.24,965.15,709.08Z" transform="translate(-924.54 -672.67)"/><path class="cls-2" d="M980.81,726.3l-.35-.62c-.06.44-.32.46-.2,1.28.25,1.64.46-1.13.7.22C981,726.86,981.29,726.24,980.81,726.3Z" transform="translate(-924.54 -672.67)"/><path class="cls-2" d="M951.26,703.51c-.08,0-.19-.11-.25-.09s-.33.12-.36.23.07.33.12.5c0-.06.1-.17.14-.16a.78.78,0,0,1,.34.17c.08.05.19.17.18.23-.09.5.3.28.49.36l-.13-.35v-.16C951.62,704,950.78,704.06,951.26,703.51Z" transform="translate(-924.54 -672.67)"/><path class="cls-2" d="M951.78,704.24v.16A.15.15,0,0,0,951.78,704.24Z" transform="translate(-924.54 -672.67)"/><path class="cls-2" d="M970.44,716.69l-.33.62h0c0,.61-.21,1.54.2,1.75s.53-.68.8-1.09C970.81,717.8,970.34,718.06,970.44,716.69Z" transform="translate(-924.54 -672.67)"/><path class="cls-2" d="M1033.32,705.55c.06.2.08.29.08.29.57,0,1.13,0,1.69,0,0,0,0-.34,0-.37C1034.37,705,1034.13,706.18,1033.32,705.55Z" transform="translate(-924.54 -672.67)"/><path class="cls-2" d="M999,688.33a8,8,0,0,0,.19,1.18l.43-.31c0-.24,0-.61,0-.89A1.41,1.41,0,0,0,999,688.33Z" transform="translate(-924.54 -672.67)"/><path class="cls-2" d="M990.37,705l.88.48.12-.68.4-.07a3.49,3.49,0,0,0-.94-.19C990.62,704.57,990.52,704.84,990.37,705Z" transform="translate(-924.54 -672.67)"/><path class="cls-2" d="M1002,686.27a2.34,2.34,0,0,0-.27.52c0,.14,0,.34.09.37s.18-.4.3-.65C1002.05,686.42,1002,686.23,1002,686.27Z" transform="translate(-924.54 -672.67)"/><path class="cls-2" d="M1011.18,701.17a5.17,5.17,0,0,0-1-.55c-.63.69,1,.34.44,1l.38,0C1011.08,701.43,1011.22,701.19,1011.18,701.17Z" transform="translate(-924.54 -672.67)"/><path class="cls-2" d="M978.1,727.87a4.18,4.18,0,0,0-.21.79c-.06.27-.25.49-.24.58s.13.13.25,0a.67.67,0,0,0,.21-.54c.14-.73.39-.27.49-.07.09-.44,0-.52-.07-.55S978.09,728.08,978.1,727.87Z" transform="translate(-924.54 -672.67)"/><path class="cls-2" d="M935.41,724.64l.24-1.24c-.14.06-.39.15-.38.18C935.41,723.94,934.54,724.27,935.41,724.64Z" transform="translate(-924.54 -672.67)"/><polygon class="cls-2" points="11.11 50.72 11.11 50.73 11.12 50.73 11.12 50.73 11.11 50.72"/><path class="cls-2" d="M935.66,723.4h0Z" transform="translate(-924.54 -672.67)"/><path class="cls-2" d="M970.11,717.31v0Z" transform="translate(-924.54 -672.67)"/><path class="cls-2" d="M970.39,716a4.12,4.12,0,0,0-.14-.7c0-.07-.29,0-.31.09-.11.67-.18,1.39-.24,2.15l.4-.24C970,716.51,969.88,716,970.39,716Z" transform="translate(-924.54 -672.67)"/><polygon class="cls-2" points="45.56 44.62 45.57 44.63 45.57 44.62 45.56 44.62"/><polygon class="cls-2" points="45.57 44.62 45.57 44.63 45.57 44.64 45.57 44.62"/><polygon class="cls-2" points="74.4 13.39 74.4 13.39 74.4 13.39 74.4 13.39"/><path class="cls-2" d="M998.74,685.83c-.24-.29-.32-.22-.12.06s.43.52.64.77c0,.05.07,0,.1,0l-.43-.56h0Z" transform="translate(-924.54 -672.67)"/><rect class="cls-2" x="998.93" y="686.05" height="0.02" transform="translate(-1091.69 343.2) rotate(-50.27)"/><path class="cls-2" d="M997.12,692.86l.76-1,.07-.43c-.31.38-.63.75-.92,1.14C997,692.59,997.09,692.74,997.12,692.86Z" transform="translate(-924.54 -672.67)"/><path class="cls-2" d="M951.69,714.81c-.21-.71-.48.19-1-.2s-1.25-.35-.71.65l1.13,0C951.33,715.08,951.73,714.93,951.69,714.81Z" transform="translate(-924.54 -672.67)"/><path class="cls-2" d="M947.92,717c.29.38.41.07.61-.07l.19-.8a7.14,7.14,0,0,0-.9.5C947.77,716.65,947.84,716.88,947.92,717Z" transform="translate(-924.54 -672.67)"/><path class="cls-1" d="M1042.31,698.29c-.72.35-1.44.7-2.14,1.08-.08,0-.07.26-.1.4l1.53-.38Z" transform="translate(-924.54 -672.67)"/><path class="cls-1" d="M1040.53,697.19c-.14,0-.2.28-.3.43l1.44-.11.12-.46A10.33,10.33,0,0,0,1040.53,697.19Z" transform="translate(-924.54 -672.67)"/><path class="cls-1" d="M1043.87,695.41c.19.61.4-.32.67.1l.8-.75c-.58.13-1.29.08-1.71.42C1042.84,695.81,1043.6,695.42,1043.87,695.41Z" transform="translate(-924.54 -672.67)"/><path class="cls-1" d="M1042.25,699.45c.34.5.27.38.28-.13,0-.74.52.52.64,0a2.46,2.46,0,0,0-.14-.76c-.33.17-.66.34-1,.53C1042.05,699.11,1042.17,699.31,1042.25,699.45Z" transform="translate(-924.54 -672.67)"/><path class="cls-1" d="M1044.09,695.89c-.16.05-.22.32-.37.41a2.24,2.24,0,0,1-.59.17c.07-.16.37-.38-.12-.44a2.82,2.82,0,0,0-.71.09l.54.49c0,.14.09.41,0,.5-.43.47-.58.86.3,1.18.12,0,.33.07.35,0a4.43,4.43,0,0,0,.17-.74l-.09,0h-.44l.42-.39,1-1C1044.43,696,1044.21,695.86,1044.09,695.89Z" transform="translate(-924.54 -672.67)"/><path class="cls-2" d="M1055.2,686.5c.58.39.56,1.24-.16,1.13-.39,0-.6.12-.9.15-.12,0-.18.32-.26.5,1.56.45-1.11,1.28.44,1.73-.89.3-.26,1.54-.82,2-.37-.75-.6.18-1-.11s.53-.8-.35-.76a1.09,1.09,0,0,1,.21-.26c.26-.17.54-.32.8-.5a1.36,1.36,0,0,0-.13-.28l-1.4.57.52.47a4.87,4.87,0,0,1-1.23,1,4.43,4.43,0,0,0-2.25,1.5c-.16.22-.1.5-.49.26,0,0-.71.19.1.46a1.23,1.23,0,0,0,.66,0,1.13,1.13,0,0,0,.24-.08c0,.09,0,.24-.13.27a4.21,4.21,0,0,0-2.77,2.49s-.09,0-.12,0c-.35-.33-.57-.28-.67.14,0,.06,0,.11,0,.16.36-.34.66,0,1,.31.17-.27.34-.54.52-.81a.86.86,0,0,1-.26,1.17c-.18.12-.51,0-.71.09-.73.35-1.43.75-2.14,1.13.16.14.44.27.47.42.16.71-.56.14-.56.28,0,.85,0,.84-.7,0-.08-.09-.54,0-.54,0,0,.74-.85.22-.92.76,0,.07,0,.18,0,.21a.2.2,0,0,1-.2,0l-.57-.18-.75-1.11,1.53-.38.71-1.1c-.72.35-1.44.7-2.14,1.08-.08,0-.07.26-.1.4l-4.39-6.57c.18-.12.33-.37.55-.35s.16-.16.25-.25l-.36,0-.42,0c0-.08.06-.19.13-.25s.31-.24.46-.36c.83,1.5.94-.26,1.52-.1.38.1.78-.16,1.16-.29a1.78,1.78,0,0,0,.46-.33c-.09-.07-.26-.16-.26-.21s0-.37.14-.44.53-.19.75-.36a27.08,27.08,0,0,1,2.85-2.2,4.73,4.73,0,0,0,1.06-.65,5.8,5.8,0,0,1,3.31-1.54,1.55,1.55,0,0,1-.25-.42c0-.22-.08-.6,0-.63s.5.13.7.07c.46-.15,1.17,0,1.19-.82,0-.1.56-.14.55-.17-.18-.68-.06-.69.37-.17.54-.73,1.15,0,1.49.42s.72.45,1.08.23l.11.16a5.21,5.21,0,0,0-.47.47,4.07,4.07,0,0,0-.3.63,1.75,1.75,0,0,0,.54.09,2.17,2.17,0,0,0,.54-.19,1.94,1.94,0,0,0-.46.39c-.45.7.47,1,.63,1.53a5,5,0,0,1,.78-.51C1054.24,686.75,1054.88,686.29,1055.2,686.5Zm-13.41,10.55a10.33,10.33,0,0,0-1.26.14c-.14,0-.2.28-.3.43l1.44-.11Zm1.24,1.53c-.33.17-.66.34-1,.53,0,0,.11.2.19.34.34.5.27.38.28-.13,0-.74.52.52.64,0A2.46,2.46,0,0,0,1043,698.58Zm1.57-2.45c-.17-.09-.39-.27-.51-.24s-.22.32-.37.41a2.24,2.24,0,0,1-.59.17c.07-.16.37-.38-.12-.44a2.82,2.82,0,0,0-.71.09l.54.49c0,.14.09.41,0,.5-.43.47-.58.86.3,1.18.12,0,.33.07.35,0a4.43,4.43,0,0,0,.17-.74l-.09,0h-.44l.42-.39Zm.74-1.37c-.58.13-1.29.08-1.71.42-.79.63,0,.24.24.23.19.61.4-.32.67.1Z" transform="translate(-924.54 -672.67)"/><path class="cls-2" d="M1053.17,682.74s0,.15-.06.23l1.56.64-.32-.64Z" transform="translate(-924.54 -672.67)"/></svg>